<?xml version="1.0" encoding="UTF-8" standalone="no"?>
<!DOCTYPE svg PUBLIC "-//W3C//DTD SVG 1.1//EN"
 "http://www.w3.org/Graphics/SVG/1.1/DTD/svg11.dtd">
<!-- Generated by graphviz version 2.43.0 (0)
 -->
<!-- Title: com.eneskaydi.yazilimprojeyonetimi.Service.MonthlyBudgetServiceImpl.createMonthlyBudget Pages: 1 -->
<svg width="735pt" height="230pt"
 viewBox="0.00 0.00 735.00 230.00" xmlns="http://www.w3.org/2000/svg" xmlns:xlink="http://www.w3.org/1999/xlink">
<g id="graph0" class="graph" transform="scale(1 1) rotate(0) translate(4 226)">
<title>com.eneskaydi.yazilimprojeyonetimi.Service.MonthlyBudgetServiceImpl.createMonthlyBudget</title>
<!-- Node1 -->
<g id="node1" class="node">
<title>Node1</title>
<g id="a_node1"><a xlink:title=" ">
<polygon fill="#bfbfbf" stroke="black" points="0,-90.5 0,-131.5 221,-131.5 221,-90.5 0,-90.5"/>
<text text-anchor="start" x="8" y="-119.5" font-family="Helvetica,sans-Serif" font-size="10.00">com.eneskaydi.yazilimprojeyonetimi.</text>
<text text-anchor="start" x="8" y="-108.5" font-family="Helvetica,sans-Serif" font-size="10.00">Service.MonthlyBudgetServiceImpl.create</text>
<text text-anchor="middle" x="110.5" y="-97.5" font-family="Helvetica,sans-Serif" font-size="10.00">MonthlyBudget</text>
</a>
</g>
</g>
<!-- Node2 -->
<g id="node2" class="node">
<title>Node2</title>
<g id="a_node2"><a xlink:href="interfacecom_1_1eneskaydi_1_1yazilimprojeyonetimi_1_1Repository_1_1MonthlyBudgetRepository.html#a207f8a1a1a7723b2b5a340d99bbcd364" target="_top" xlink:title=" ">
<polygon fill="none" stroke="black" points="257,-180.5 257,-221.5 485,-221.5 485,-180.5 257,-180.5"/>
<text text-anchor="start" x="265" y="-209.5" font-family="Helvetica,sans-Serif" font-size="10.00">com.eneskaydi.yazilimprojeyonetimi.</text>
<text text-anchor="start" x="265" y="-198.5" font-family="Helvetica,sans-Serif" font-size="10.00">Repository.MonthlyBudgetRepository.exists</text>
<text text-anchor="middle" x="371" y="-187.5" font-family="Helvetica,sans-Serif" font-size="10.00">ByBudgetYearAndMonth</text>
</a>
</g>
</g>
<!-- Node1&#45;&gt;Node2 -->
<g id="edge1" class="edge">
<title>Node1&#45;&gt;Node2</title>
<path fill="none" stroke="midnightblue" d="M157.11,-131.62C185.49,-144 222.95,-159.52 257,-171 263.74,-173.27 270.76,-175.49 277.85,-177.62"/>
<polygon fill="midnightblue" stroke="midnightblue" points="276.96,-181 287.54,-180.46 278.93,-174.29 276.96,-181"/>
</g>
<!-- Node3 -->
<g id="node3" class="node">
<title>Node3</title>
<g id="a_node3"><a xlink:href="classcom_1_1eneskaydi_1_1yazilimprojeyonetimi_1_1Service_1_1MonthlyBudgetServiceImpl.html#a9b9c62d040388ba0b6050e4c8ab04491" target="_top" xlink:title=" ">
<polygon fill="none" stroke="black" points="268,-120.5 268,-161.5 474,-161.5 474,-120.5 268,-120.5"/>
<text text-anchor="start" x="276" y="-149.5" font-family="Helvetica,sans-Serif" font-size="10.00">com.eneskaydi.yazilimprojeyonetimi.</text>
<text text-anchor="start" x="276" y="-138.5" font-family="Helvetica,sans-Serif" font-size="10.00">Service.MonthlyBudgetServiceImpl.get</text>
<text text-anchor="middle" x="371" y="-127.5" font-family="Helvetica,sans-Serif" font-size="10.00">BudgetYearIfValid</text>
</a>
</g>
</g>
<!-- Node1&#45;&gt;Node3 -->
<g id="edge2" class="edge">
<title>Node1&#45;&gt;Node3</title>
<path fill="none" stroke="midnightblue" d="M221.13,-123.72C233.17,-125.12 245.44,-126.54 257.52,-127.95"/>
<polygon fill="midnightblue" stroke="midnightblue" points="257.27,-131.44 267.6,-129.12 258.07,-124.49 257.27,-131.44"/>
</g>
<!-- Node6 -->
<g id="node6" class="node">
<title>Node6</title>
<g id="a_node6"><a xlink:href="classcom_1_1eneskaydi_1_1yazilimprojeyonetimi_1_1Service_1_1MonthlyBudgetServiceImpl.html#a9c632dfacbe9de416bffda7f7c472acd" target="_top" xlink:title=" ">
<polygon fill="none" stroke="black" points="265,-60.5 265,-101.5 477,-101.5 477,-60.5 265,-60.5"/>
<text text-anchor="start" x="273" y="-89.5" font-family="Helvetica,sans-Serif" font-size="10.00">com.eneskaydi.yazilimprojeyonetimi.</text>
<text text-anchor="start" x="273" y="-78.5" font-family="Helvetica,sans-Serif" font-size="10.00">Service.MonthlyBudgetServiceImpl.map</text>
<text text-anchor="middle" x="371" y="-67.5" font-family="Helvetica,sans-Serif" font-size="10.00">ToMonthlyBudgetDto</text>
</a>
</g>
</g>
<!-- Node1&#45;&gt;Node6 -->
<g id="edge5" class="edge">
<title>Node1&#45;&gt;Node6</title>
<path fill="none" stroke="midnightblue" d="M221.13,-98.28C232.19,-96.99 243.45,-95.69 254.57,-94.4"/>
<polygon fill="midnightblue" stroke="midnightblue" points="255.2,-97.85 264.73,-93.22 254.4,-90.89 255.2,-97.85"/>
</g>
<!-- Node7 -->
<g id="node7" class="node">
<title>Node7</title>
<g id="a_node7"><a xlink:href="interfacecom_1_1eneskaydi_1_1yazilimprojeyonetimi_1_1Service_1_1BudgetYearService.html#a3a99f24793f828288bd8ea339f0b0ba3" target="_top" xlink:title=" ">
<polygon fill="none" stroke="black" points="262,-0.5 262,-41.5 480,-41.5 480,-0.5 262,-0.5"/>
<text text-anchor="start" x="270" y="-29.5" font-family="Helvetica,sans-Serif" font-size="10.00">com.eneskaydi.yazilimprojeyonetimi.</text>
<text text-anchor="start" x="270" y="-18.5" font-family="Helvetica,sans-Serif" font-size="10.00">Service.BudgetYearService.updateBudget</text>
<text text-anchor="middle" x="371" y="-7.5" font-family="Helvetica,sans-Serif" font-size="10.00">YearTotals</text>
</a>
</g>
</g>
<!-- Node1&#45;&gt;Node7 -->
<g id="edge6" class="edge">
<title>Node1&#45;&gt;Node7</title>
<path fill="none" stroke="midnightblue" d="M157.11,-90.38C185.49,-78 222.95,-62.48 257,-51 263.74,-48.73 270.76,-46.51 277.85,-44.38"/>
<polygon fill="midnightblue" stroke="midnightblue" points="278.93,-47.71 287.54,-41.54 276.96,-41 278.93,-47.71"/>
</g>
<!-- Node4 -->
<g id="node4" class="node">
<title>Node4</title>
<g id="a_node4"><a xlink:href="interfacecom_1_1eneskaydi_1_1yazilimprojeyonetimi_1_1Repository_1_1PropertyRepository.html#a34ff11d0d1d56ca858a934c5d196ed20" target="_top" xlink:title=" ">
<polygon fill="none" stroke="black" points="524,-150.5 524,-191.5 724,-191.5 724,-150.5 524,-150.5"/>
<text text-anchor="start" x="532" y="-179.5" font-family="Helvetica,sans-Serif" font-size="10.00">com.eneskaydi.yazilimprojeyonetimi.</text>
<text text-anchor="start" x="532" y="-168.5" font-family="Helvetica,sans-Serif" font-size="10.00">Repository.PropertyRepository.findBy</text>
<text text-anchor="middle" x="624" y="-157.5" font-family="Helvetica,sans-Serif" font-size="10.00">IdAndUser</text>
</a>
</g>
</g>
<!-- Node3&#45;&gt;Node4 -->
<g id="edge3" class="edge">
<title>Node3&#45;&gt;Node4</title>
<path fill="none" stroke="midnightblue" d="M474.09,-153.2C487.18,-154.77 500.62,-156.37 513.81,-157.95"/>
<polygon fill="midnightblue" stroke="midnightblue" points="513.5,-161.44 523.84,-159.15 514.33,-154.49 513.5,-161.44"/>
</g>
<!-- Node5 -->
<g id="node5" class="node">
<title>Node5</title>
<g id="a_node5"><a xlink:href="classcom_1_1eneskaydi_1_1yazilimprojeyonetimi_1_1Service_1_1MonthlyBudgetServiceImpl.html#afbca518f263173de8204ce13636c81ae" target="_top" xlink:title=" ">
<polygon fill="none" stroke="black" points="521,-90.5 521,-131.5 727,-131.5 727,-90.5 521,-90.5"/>
<text text-anchor="start" x="529" y="-119.5" font-family="Helvetica,sans-Serif" font-size="10.00">com.eneskaydi.yazilimprojeyonetimi.</text>
<text text-anchor="start" x="529" y="-108.5" font-family="Helvetica,sans-Serif" font-size="10.00">Service.MonthlyBudgetServiceImpl.get</text>
<text text-anchor="middle" x="624" y="-97.5" font-family="Helvetica,sans-Serif" font-size="10.00">CurrentUser</text>
</a>
</g>
</g>
<!-- Node3&#45;&gt;Node5 -->
<g id="edge4" class="edge">
<title>Node3&#45;&gt;Node5</title>
<path fill="none" stroke="midnightblue" d="M474.09,-128.8C486.18,-127.35 498.57,-125.87 510.79,-124.41"/>
<polygon fill="midnightblue" stroke="midnightblue" points="511.49,-127.85 521,-123.19 510.65,-120.9 511.49,-127.85"/>
</g>
</g>
</svg>
