<?xml version="1.0" encoding="UTF-8" standalone="no"?>
<!DOCTYPE svg PUBLIC "-//W3C//DTD SVG 1.1//EN"
 "http://www.w3.org/Graphics/SVG/1.1/DTD/svg11.dtd">
<!-- Generated by graphviz version 2.43.0 (0)
 -->
<!-- Title: com.eneskaydi.yazilimprojeyonetimi.Service.PropertyServiceImpl.getCurrentUser Pages: 1 -->
<svg width="512pt" height="247pt"
 viewBox="0.00 0.00 512.00 247.00" xmlns="http://www.w3.org/2000/svg" xmlns:xlink="http://www.w3.org/1999/xlink">
<g id="graph0" class="graph" transform="scale(1 1) rotate(0) translate(4 243)">
<title>com.eneskaydi.yazilimprojeyonetimi.Service.PropertyServiceImpl.getCurrentUser</title>
<!-- Node1 -->
<g id="node1" class="node">
<title>Node1</title>
<g id="a_node1"><a xlink:title=" ">
<polygon fill="#bfbfbf" stroke="black" points="272,-104.5 272,-134.5 504,-134.5 504,-104.5 272,-104.5"/>
<text text-anchor="start" x="280" y="-122.5" font-family="Helvetica,sans-Serif" font-size="10.00">com.eneskaydi.yazilimprojeyonetimi.</text>
<text text-anchor="middle" x="388" y="-111.5" font-family="Helvetica,sans-Serif" font-size="10.00">Service.PropertyServiceImpl.getCurrentUser</text>
</a>
</g>
</g>
<!-- Node2 -->
<g id="node2" class="node">
<title>Node2</title>
<g id="a_node2"><a xlink:href="classcom_1_1eneskaydi_1_1yazilimprojeyonetimi_1_1Service_1_1PropertyServiceImpl.html#a136cf1f2c146a8c92d417218691e6f82" target="_top" xlink:title=" ">
<polygon fill="none" stroke="black" points="3,-208.5 3,-238.5 233,-238.5 233,-208.5 3,-208.5"/>
<text text-anchor="start" x="11" y="-226.5" font-family="Helvetica,sans-Serif" font-size="10.00">com.eneskaydi.yazilimprojeyonetimi.</text>
<text text-anchor="middle" x="118" y="-215.5" font-family="Helvetica,sans-Serif" font-size="10.00">Service.PropertyServiceImpl.createProperty</text>
</a>
</g>
</g>
<!-- Node1&#45;&gt;Node2 -->
<g id="edge1" class="edge">
<title>Node1&#45;&gt;Node2</title>
<path fill="none" stroke="midnightblue" d="M354.96,-139.94C325.22,-158.07 279.14,-184.01 236,-199.5 226.54,-202.9 216.46,-205.87 206.34,-208.46"/>
<polygon fill="midnightblue" stroke="midnightblue" points="356.98,-142.82 363.65,-134.59 353.3,-136.86 356.98,-142.82"/>
</g>
<!-- Node3 -->
<g id="node3" class="node">
<title>Node3</title>
<g id="a_node3"><a xlink:href="classcom_1_1eneskaydi_1_1yazilimprojeyonetimi_1_1Service_1_1PropertyServiceImpl.html#aff221b19cdc0114a595f87d6f525c10b" target="_top" xlink:title=" ">
<polygon fill="none" stroke="black" points="3,-159.5 3,-189.5 233,-189.5 233,-159.5 3,-159.5"/>
<text text-anchor="start" x="11" y="-177.5" font-family="Helvetica,sans-Serif" font-size="10.00">com.eneskaydi.yazilimprojeyonetimi.</text>
<text text-anchor="middle" x="118" y="-166.5" font-family="Helvetica,sans-Serif" font-size="10.00">Service.PropertyServiceImpl.deleteProperty</text>
</a>
</g>
</g>
<!-- Node1&#45;&gt;Node3 -->
<g id="edge2" class="edge">
<title>Node1&#45;&gt;Node3</title>
<path fill="none" stroke="midnightblue" d="M303.85,-136.56C268.11,-143.9 226.7,-152.4 192.14,-159.49"/>
<polygon fill="midnightblue" stroke="midnightblue" points="304.68,-139.97 313.77,-134.53 303.27,-133.11 304.68,-139.97"/>
</g>
<!-- Node4 -->
<g id="node4" class="node">
<title>Node4</title>
<g id="a_node4"><a xlink:href="classcom_1_1eneskaydi_1_1yazilimprojeyonetimi_1_1Service_1_1PropertyServiceImpl.html#ae1629c39b6e73ca5dd336447ca06ba40" target="_top" xlink:title=" ">
<polygon fill="none" stroke="black" points="0,-99 0,-140 236,-140 236,-99 0,-99"/>
<text text-anchor="start" x="8" y="-128" font-family="Helvetica,sans-Serif" font-size="10.00">com.eneskaydi.yazilimprojeyonetimi.</text>
<text text-anchor="start" x="8" y="-117" font-family="Helvetica,sans-Serif" font-size="10.00">Service.PropertyServiceImpl.getAllProperties</text>
<text text-anchor="middle" x="118" y="-106" font-family="Helvetica,sans-Serif" font-size="10.00">ForCurrentUser</text>
</a>
</g>
</g>
<!-- Node1&#45;&gt;Node4 -->
<g id="edge3" class="edge">
<title>Node1&#45;&gt;Node4</title>
<path fill="none" stroke="midnightblue" d="M261.54,-119.5C253.11,-119.5 244.63,-119.5 236.24,-119.5"/>
<polygon fill="midnightblue" stroke="midnightblue" points="261.79,-123 271.79,-119.5 261.79,-116 261.79,-123"/>
</g>
<!-- Node5 -->
<g id="node5" class="node">
<title>Node5</title>
<g id="a_node5"><a xlink:href="classcom_1_1eneskaydi_1_1yazilimprojeyonetimi_1_1Service_1_1PropertyServiceImpl.html#a8e8e3c65ca79baf7f8d69faf13f8d386" target="_top" xlink:title=" ">
<polygon fill="none" stroke="black" points="0,-49.5 0,-79.5 236,-79.5 236,-49.5 0,-49.5"/>
<text text-anchor="start" x="8" y="-67.5" font-family="Helvetica,sans-Serif" font-size="10.00">com.eneskaydi.yazilimprojeyonetimi.</text>
<text text-anchor="middle" x="118" y="-56.5" font-family="Helvetica,sans-Serif" font-size="10.00">Service.PropertyServiceImpl.getPropertyById</text>
</a>
</g>
</g>
<!-- Node1&#45;&gt;Node5 -->
<g id="edge4" class="edge">
<title>Node1&#45;&gt;Node5</title>
<path fill="none" stroke="midnightblue" d="M303.85,-102.44C268.11,-95.1 226.7,-86.6 192.14,-79.51"/>
<polygon fill="midnightblue" stroke="midnightblue" points="303.27,-105.89 313.77,-104.47 304.68,-99.03 303.27,-105.89"/>
</g>
<!-- Node6 -->
<g id="node6" class="node">
<title>Node6</title>
<g id="a_node6"><a xlink:href="classcom_1_1eneskaydi_1_1yazilimprojeyonetimi_1_1Service_1_1PropertyServiceImpl.html#a8b657ec3a72a348a69f789b96cf025a4" target="_top" xlink:title=" ">
<polygon fill="none" stroke="black" points="1.5,-0.5 1.5,-30.5 234.5,-30.5 234.5,-0.5 1.5,-0.5"/>
<text text-anchor="start" x="9.5" y="-18.5" font-family="Helvetica,sans-Serif" font-size="10.00">com.eneskaydi.yazilimprojeyonetimi.</text>
<text text-anchor="middle" x="118" y="-7.5" font-family="Helvetica,sans-Serif" font-size="10.00">Service.PropertyServiceImpl.updateProperty</text>
</a>
</g>
</g>
<!-- Node1&#45;&gt;Node6 -->
<g id="edge5" class="edge">
<title>Node1&#45;&gt;Node6</title>
<path fill="none" stroke="midnightblue" d="M354.37,-99.1C324.56,-81.28 278.75,-55.92 236,-40.5 225.45,-36.69 214.14,-33.38 202.87,-30.52"/>
<polygon fill="midnightblue" stroke="midnightblue" points="352.72,-102.19 363.09,-104.37 356.34,-96.2 352.72,-102.19"/>
</g>
</g>
</svg>
