<?xml version="1.0" encoding="UTF-8" standalone="no"?>
<!DOCTYPE svg PUBLIC "-//W3C//DTD SVG 1.1//EN"
 "http://www.w3.org/Graphics/SVG/1.1/DTD/svg11.dtd">
<!-- Generated by graphviz version 2.43.0 (0)
 -->
<!-- Title: com.eneskaydi.yazilimprojeyonetimi.Service.AuthServiceImpl.register Pages: 1 -->
<svg width="483pt" height="137pt"
 viewBox="0.00 0.00 483.00 137.00" xmlns="http://www.w3.org/2000/svg" xmlns:xlink="http://www.w3.org/1999/xlink">
<g id="graph0" class="graph" transform="scale(1 1) rotate(0) translate(4 133)">
<title>com.eneskaydi.yazilimprojeyonetimi.Service.AuthServiceImpl.register</title>
<!-- Node1 -->
<g id="node1" class="node">
<title>Node1</title>
<g id="a_node1"><a xlink:title=" ">
<polygon fill="#bfbfbf" stroke="black" points="0,-49.5 0,-79.5 200,-79.5 200,-49.5 0,-49.5"/>
<text text-anchor="start" x="8" y="-67.5" font-family="Helvetica,sans-Serif" font-size="10.00">com.eneskaydi.yazilimprojeyonetimi.</text>
<text text-anchor="middle" x="100" y="-56.5" font-family="Helvetica,sans-Serif" font-size="10.00">Service.AuthServiceImpl.register</text>
</a>
</g>
</g>
<!-- Node2 -->
<g id="node2" class="node">
<title>Node2</title>
<g id="a_node2"><a xlink:href="interfacecom_1_1eneskaydi_1_1yazilimprojeyonetimi_1_1Repository_1_1UserRepository.html#a2b853b7964d8bedf96c5ca47ec816ece" target="_top" xlink:title=" ">
<polygon fill="none" stroke="black" points="247,-98.5 247,-128.5 464,-128.5 464,-98.5 247,-98.5"/>
<text text-anchor="start" x="255" y="-116.5" font-family="Helvetica,sans-Serif" font-size="10.00">com.eneskaydi.yazilimprojeyonetimi.</text>
<text text-anchor="middle" x="355.5" y="-105.5" font-family="Helvetica,sans-Serif" font-size="10.00">Repository.UserRepository.existsByEmail</text>
</a>
</g>
</g>
<!-- Node1&#45;&gt;Node2 -->
<g id="edge1" class="edge">
<title>Node1&#45;&gt;Node2</title>
<path fill="none" stroke="midnightblue" d="M178.78,-79.53C206.64,-84.92 238.23,-91.03 266.87,-96.56"/>
<polygon fill="midnightblue" stroke="midnightblue" points="266.38,-100.03 276.87,-98.49 267.71,-93.16 266.38,-100.03"/>
</g>
<!-- Node3 -->
<g id="node3" class="node">
<title>Node3</title>
<g id="a_node3"><a xlink:href="interfacecom_1_1eneskaydi_1_1yazilimprojeyonetimi_1_1Repository_1_1UserRepository.html#aba67e9e5f08d69576c6c28c5b139609f" target="_top" xlink:title=" ">
<polygon fill="none" stroke="black" points="236,-49.5 236,-79.5 475,-79.5 475,-49.5 236,-49.5"/>
<text text-anchor="start" x="244" y="-67.5" font-family="Helvetica,sans-Serif" font-size="10.00">com.eneskaydi.yazilimprojeyonetimi.</text>
<text text-anchor="middle" x="355.5" y="-56.5" font-family="Helvetica,sans-Serif" font-size="10.00">Repository.UserRepository.existsByUsername</text>
</a>
</g>
</g>
<!-- Node1&#45;&gt;Node3 -->
<g id="edge2" class="edge">
<title>Node1&#45;&gt;Node3</title>
<path fill="none" stroke="midnightblue" d="M200.1,-64.5C208.48,-64.5 217.04,-64.5 225.6,-64.5"/>
<polygon fill="midnightblue" stroke="midnightblue" points="225.66,-68 235.66,-64.5 225.66,-61 225.66,-68"/>
</g>
<!-- Node4 -->
<g id="node4" class="node">
<title>Node4</title>
<g id="a_node4"><a xlink:href="classcom_1_1eneskaydi_1_1yazilimprojeyonetimi_1_1Service_1_1AuthServiceImpl.html#a8c8e1711fbf06a95c410b270b1264862" target="_top" xlink:title=" ">
<polygon fill="none" stroke="black" points="250,-0.5 250,-30.5 461,-30.5 461,-0.5 250,-0.5"/>
<text text-anchor="start" x="258" y="-18.5" font-family="Helvetica,sans-Serif" font-size="10.00">com.eneskaydi.yazilimprojeyonetimi.</text>
<text text-anchor="middle" x="355.5" y="-7.5" font-family="Helvetica,sans-Serif" font-size="10.00">Service.AuthServiceImpl.mapToUserDto</text>
</a>
</g>
</g>
<!-- Node1&#45;&gt;Node4 -->
<g id="edge3" class="edge">
<title>Node1&#45;&gt;Node4</title>
<path fill="none" stroke="midnightblue" d="M178.78,-49.47C206.64,-44.08 238.23,-37.97 266.87,-32.44"/>
<polygon fill="midnightblue" stroke="midnightblue" points="267.71,-35.84 276.87,-30.51 266.38,-28.97 267.71,-35.84"/>
</g>
</g>
</svg>
