<?xml version="1.0" encoding="UTF-8" standalone="no"?>
<!DOCTYPE svg PUBLIC "-//W3C//DTD SVG 1.1//EN"
 "http://www.w3.org/Graphics/SVG/1.1/DTD/svg11.dtd">
<!-- Generated by graphviz version 2.43.0 (0)
 -->
<!-- Title: com.eneskaydi.yazilimprojeyonetimi.Service.IncomeRecordServiceImpl.getIncomeRecordById Pages: 1 -->
<!--zoomable 132 -->
<svg id="main" version="1.1" xmlns="http://www.w3.org/2000/svg" xmlns:xlink="http://www.w3.org/1999/xlink" xml:space="preserve" onload="init(evt)">
<style type="text/css"><![CDATA[
.edge:hover path { stroke: red; }
.edge:hover polygon { stroke: red; fill: red; }
]]></style>
<script type="text/javascript"><![CDATA[
var edges = document.getElementsByTagName('g');
if (edges && edges.length) {
  for (var i=0;i<edges.length;i++) {
    if (edges[i].id.substr(0,4)=='edge') {
      edges[i].setAttribute('class','edge');
    }
  }
}
]]></script>
        <defs>
                <circle id="rim" cx="0" cy="0" r="7"/>
                <circle id="rim2" cx="0" cy="0" r="3.5"/>
                <g id="zoomPlus">
                        <use xlink:href="#rim" fill="#404040">
                                <set attributeName="fill" to="#808080" begin="zoomplus.mouseover" end="zoomplus.mouseout"/>
                        </use>
                        <path d="M-4,0h8M0,-4v8" fill="none" stroke="white" stroke-width="1.5" pointer-events="none"/>
                </g>
                <g id="zoomMin">
                        <use xlink:href="#rim" fill="#404040">
                                <set attributeName="fill" to="#808080" begin="zoomminus.mouseover" end="zoomminus.mouseout"/>
                        </use>
                        <path d="M-4,0h8" fill="none" stroke="white" stroke-width="1.5" pointer-events="none"/>
                </g>
                <g id="dirArrow">
                        <path fill="none" stroke="white" stroke-width="1.5" d="M0,-3.0v7 M-2.5,-0.5L0,-3.0L2.5,-0.5"/>
                </g>
               <g id="resetDef">
                       <use xlink:href="#rim2" fill="#404040">
                               <set attributeName="fill" to="#808080" begin="reset.mouseover" end="reset.mouseout"/>
                       </use>
               </g>
        </defs>

<script type="text/javascript">
var viewWidth = 804;
var viewHeight = 132;
var sectionId = 'dynsection-6';
</script>
<script xlink:href="svgpan.js"/>
<svg id="graph" class="graph">
<g id="viewport">
<title>com.eneskaydi.yazilimprojeyonetimi.Service.IncomeRecordServiceImpl.getIncomeRecordById</title>
<!-- Node1 -->
<g id="node1" class="node">
<title>Node1</title>
<g id="a_node1"><a xlink:title=" ">
<polygon fill="#bfbfbf" stroke="black" points="0,-52 0,-93 238,-93 238,-52 0,-52"/>
<text text-anchor="start" x="8" y="-81" font-family="Helvetica,sans-Serif" font-size="10.00">com.eneskaydi.yazilimprojeyonetimi.</text>
<text text-anchor="start" x="8" y="-70" font-family="Helvetica,sans-Serif" font-size="10.00">Service.IncomeRecordServiceImpl.getIncome</text>
<text text-anchor="middle" x="119" y="-59" font-family="Helvetica,sans-Serif" font-size="10.00">RecordById</text>
</a>
</g>
</g>
<!-- Node2 -->
<g id="node2" class="node">
<title>Node2</title>
<g id="a_node2"><a xlink:href="classcom_1_1eneskaydi_1_1yazilimprojeyonetimi_1_1Service_1_1IncomeRecordServiceImpl.html#a51c901119948e64cb091e6e05d555244" target="_top" xlink:title=" ">
<polygon fill="none" stroke="black" points="278,-82 278,-123 496,-123 496,-82 278,-82"/>
<text text-anchor="start" x="286" y="-111" font-family="Helvetica,sans-Serif" font-size="10.00">com.eneskaydi.yazilimprojeyonetimi.</text>
<text text-anchor="start" x="286" y="-100" font-family="Helvetica,sans-Serif" font-size="10.00">Service.IncomeRecordServiceImpl.mapTo</text>
<text text-anchor="middle" x="387" y="-89" font-family="Helvetica,sans-Serif" font-size="10.00">IncomeRecordDto</text>
</a>
</g>
</g>
<!-- Node1&#45;&gt;Node2 -->
<g id="edge1" class="edge">
<title>Node1&#45;&gt;Node2</title>
<path fill="none" stroke="midnightblue" d="M238.22,-85.83C248,-86.94 257.9,-88.05 267.68,-89.16"/>
<polygon fill="midnightblue" stroke="midnightblue" points="267.5,-92.66 277.83,-90.3 268.28,-85.7 267.5,-92.66"/>
</g>
<!-- Node3 -->
<g id="node3" class="node">
<title>Node3</title>
<g id="a_node3"><a xlink:href="classcom_1_1eneskaydi_1_1yazilimprojeyonetimi_1_1Service_1_1IncomeRecordServiceImpl.html#a4898db09e21c8130e5224803b15b8c82" target="_top" xlink:title=" ">
<polygon fill="none" stroke="black" points="274,-22 274,-63 500,-63 500,-22 274,-22"/>
<text text-anchor="start" x="282" y="-51" font-family="Helvetica,sans-Serif" font-size="10.00">com.eneskaydi.yazilimprojeyonetimi.</text>
<text text-anchor="start" x="282" y="-40" font-family="Helvetica,sans-Serif" font-size="10.00">Service.IncomeRecordServiceImpl.validate</text>
<text text-anchor="middle" x="387" y="-29" font-family="Helvetica,sans-Serif" font-size="10.00">PropertyAndBudgetYear</text>
</a>
</g>
</g>
<!-- Node1&#45;&gt;Node3 -->
<g id="edge2" class="edge">
<title>Node1&#45;&gt;Node3</title>
<path fill="none" stroke="midnightblue" d="M238.22,-59.17C246.7,-58.21 255.26,-57.25 263.75,-56.29"/>
<polygon fill="midnightblue" stroke="midnightblue" points="264.15,-59.76 273.7,-55.17 263.37,-52.81 264.15,-59.76"/>
</g>
<!-- Node4 -->
<g id="node4" class="node">
<title>Node4</title>
<g id="a_node4"><a xlink:href="interfacecom_1_1eneskaydi_1_1yazilimprojeyonetimi_1_1Repository_1_1PropertyRepository.html#a34ff11d0d1d56ca858a934c5d196ed20" target="_top" xlink:title=" ">
<polygon fill="none" stroke="black" points="566,-50 566,-91 766,-91 766,-50 566,-50"/>
<text text-anchor="start" x="574" y="-79" font-family="Helvetica,sans-Serif" font-size="10.00">com.eneskaydi.yazilimprojeyonetimi.</text>
<text text-anchor="start" x="574" y="-68" font-family="Helvetica,sans-Serif" font-size="10.00">Repository.PropertyRepository.findBy</text>
<text text-anchor="middle" x="666" y="-57" font-family="Helvetica,sans-Serif" font-size="10.00">IdAndUser</text>
</a>
</g>
</g>
<!-- Node3&#45;&gt;Node4 -->
<g id="edge3" class="edge">
<title>Node3&#45;&gt;Node4</title>
<path fill="none" stroke="midnightblue" d="M500.27,-53.85C518.61,-55.7 537.6,-57.62 555.87,-59.47"/>
<polygon fill="midnightblue" stroke="midnightblue" points="555.64,-62.96 565.94,-60.49 556.34,-56 555.64,-62.96"/>
</g>
<!-- Node5 -->
<g id="node5" class="node">
<title>Node5</title>
<g id="a_node5"><a xlink:href="classcom_1_1eneskaydi_1_1yazilimprojeyonetimi_1_1Service_1_1IncomeRecordServiceImpl.html#aa1e86a856a1dcc372aa02a6bed59081a" target="_top" xlink:title=" ">
<polygon fill="none" stroke="black" points="536,-0.5 536,-30.5 796,-30.5 796,-0.5 536,-0.5"/>
<text text-anchor="start" x="544" y="-18.5" font-family="Helvetica,sans-Serif" font-size="10.00">com.eneskaydi.yazilimprojeyonetimi.</text>
<text text-anchor="middle" x="666" y="-7.5" font-family="Helvetica,sans-Serif" font-size="10.00">Service.IncomeRecordServiceImpl.getCurrentUser</text>
</a>
</g>
</g>
<!-- Node3&#45;&gt;Node5 -->
<g id="edge4" class="edge">
<title>Node3&#45;&gt;Node5</title>
<path fill="none" stroke="midnightblue" d="M500.27,-31.56C508.67,-30.74 517.22,-29.9 525.76,-29.07"/>
<polygon fill="midnightblue" stroke="midnightblue" points="526.17,-32.55 535.79,-28.09 525.49,-25.58 526.17,-32.55"/>
</g>
</g>
</svg>
        <g id="navigator" transform="translate(0 0)" fill="#404254">
                <rect fill="#f2f5e9" fill-opacity="0.5" stroke="#606060" stroke-width=".5" x="0" y="0" width="60" height="60"/>
                <use id="zoomplus" xlink:href="#zoomPlus" x="17" y="9" onmousedown="handleZoom(evt,'in')"/>
                <use id="zoomminus" xlink:href="#zoomMin" x="42" y="9" onmousedown="handleZoom(evt,'out')"/>
                <use id="reset" xlink:href="#resetDef" x="30" y="36" onmousedown="handleReset()"/>
                <g id="arrowUp" xlink:href="#dirArrow" transform="translate(30 24)" onmousedown="handlePan(0,-1)">
                  <use xlink:href="#rim" fill="#404040">
                        <set attributeName="fill" to="#808080" begin="arrowUp.mouseover" end="arrowUp.mouseout"/>
                  </use>
                  <path fill="none" stroke="white" stroke-width="1.5" d="M0,-3.0v7 M-2.5,-0.5L0,-3.0L2.5,-0.5"/>
                </g>
                <g id="arrowRight" xlink:href="#dirArrow" transform="rotate(90) translate(36 -43)" onmousedown="handlePan(1,0)">
                  <use xlink:href="#rim" fill="#404040">
                        <set attributeName="fill" to="#808080" begin="arrowRight.mouseover" end="arrowRight.mouseout"/>
                  </use>
                  <path fill="none" stroke="white" stroke-width="1.5" d="M0,-3.0v7 M-2.5,-0.5L0,-3.0L2.5,-0.5"/>
                </g>
                <g id="arrowDown" xlink:href="#dirArrow" transform="rotate(180) translate(-30 -48)" onmousedown="handlePan(0,1)">
                  <use xlink:href="#rim" fill="#404040">
                        <set attributeName="fill" to="#808080" begin="arrowDown.mouseover" end="arrowDown.mouseout"/>
                  </use>
                  <path fill="none" stroke="white" stroke-width="1.5" d="M0,-3.0v7 M-2.5,-0.5L0,-3.0L2.5,-0.5"/>
                </g>
                <g id="arrowLeft" xlink:href="#dirArrow" transform="rotate(270) translate(-36 17)" onmousedown="handlePan(-1,0)">
                  <use xlink:href="#rim" fill="#404040">
                        <set attributeName="fill" to="#808080" begin="arrowLeft.mouseover" end="arrowLeft.mouseout"/>
                  </use>
                  <path fill="none" stroke="white" stroke-width="1.5" d="M0,-3.0v7 M-2.5,-0.5L0,-3.0L2.5,-0.5"/>
                </g>
        </g>
        <svg viewBox="0 0 15 15" width="100%" height="30px" preserveAspectRatio="xMaxYMin meet">
         <g id="arrow_out" transform="scale(0.3 0.3)">
          <a xlink:href="classcom_1_1eneskaydi_1_1yazilimprojeyonetimi_1_1Service_1_1IncomeRecordServiceImpl_ae59b3d9430138561f520c8912b1d00fa_cgraph_org.svg" target="_base">
           <rect id="button" ry="5" rx="5" y="6" x="6" height="38" width="38"
                fill="#f2f5e9" fill-opacity="0.5" stroke="#606060" stroke-width="1.0"/>
           <path id="arrow"
             d="M 11.500037,31.436501 C 11.940474,20.09759 22.043105,11.32322 32.158766,21.979434 L 37.068811,17.246167 C 37.068811,17.246167 37.088388,32 37.088388,32 L 22.160133,31.978069 C 22.160133,31.978069 26.997745,27.140456 26.997745,27.140456 C 18.528582,18.264221 13.291696,25.230495 11.500037,31.436501 z"
             style="fill:#404040;"/>
          </a>
         </g>
        </svg>
</svg>
