<?xml version="1.0" encoding="UTF-8" standalone="no"?>
<!DOCTYPE svg PUBLIC "-//W3C//DTD SVG 1.1//EN"
 "http://www.w3.org/Graphics/SVG/1.1/DTD/svg11.dtd">
<!-- Generated by graphviz version 2.43.0 (0)
 -->
<!-- Title: com.eneskaydi.yazilimprojeyonetimi.Service.BudgetYearServiceImpl.getBudgetYearById Pages: 1 -->
<svg width="784pt" height="137pt"
 viewBox="0.00 0.00 784.00 137.00" xmlns="http://www.w3.org/2000/svg" xmlns:xlink="http://www.w3.org/1999/xlink">
<g id="graph0" class="graph" transform="scale(1 1) rotate(0) translate(4 133)">
<title>com.eneskaydi.yazilimprojeyonetimi.Service.BudgetYearServiceImpl.getBudgetYearById</title>
<!-- Node1 -->
<g id="node1" class="node">
<title>Node1</title>
<g id="a_node1"><a xlink:title=" ">
<polygon fill="#bfbfbf" stroke="black" points="0,-30.5 0,-71.5 221,-71.5 221,-30.5 0,-30.5"/>
<text text-anchor="start" x="8" y="-59.5" font-family="Helvetica,sans-Serif" font-size="10.00">com.eneskaydi.yazilimprojeyonetimi.</text>
<text text-anchor="start" x="8" y="-48.5" font-family="Helvetica,sans-Serif" font-size="10.00">Service.BudgetYearServiceImpl.getBudget</text>
<text text-anchor="middle" x="110.5" y="-37.5" font-family="Helvetica,sans-Serif" font-size="10.00">YearById</text>
</a>
</g>
</g>
<!-- Node2 -->
<g id="node2" class="node">
<title>Node2</title>
<g id="a_node2"><a xlink:href="classcom_1_1eneskaydi_1_1yazilimprojeyonetimi_1_1Service_1_1BudgetYearServiceImpl.html#a1ea389e798d9c1017f259d008c61f107" target="_top" xlink:title=" ">
<polygon fill="none" stroke="black" points="262,-60.5 262,-101.5 490,-101.5 490,-60.5 262,-60.5"/>
<text text-anchor="start" x="270" y="-89.5" font-family="Helvetica,sans-Serif" font-size="10.00">com.eneskaydi.yazilimprojeyonetimi.</text>
<text text-anchor="start" x="270" y="-78.5" font-family="Helvetica,sans-Serif" font-size="10.00">Service.BudgetYearServiceImpl.getProperty</text>
<text text-anchor="middle" x="376" y="-67.5" font-family="Helvetica,sans-Serif" font-size="10.00">IfBelongsToCurrentUser</text>
</a>
</g>
</g>
<!-- Node1&#45;&gt;Node2 -->
<g id="edge1" class="edge">
<title>Node1&#45;&gt;Node2</title>
<path fill="none" stroke="midnightblue" d="M221.34,-63.51C231.4,-64.65 241.64,-65.82 251.81,-66.97"/>
<polygon fill="midnightblue" stroke="midnightblue" points="251.61,-70.47 261.94,-68.13 252.4,-63.52 251.61,-70.47"/>
</g>
<!-- Node5 -->
<g id="node5" class="node">
<title>Node5</title>
<g id="a_node5"><a xlink:href="classcom_1_1eneskaydi_1_1yazilimprojeyonetimi_1_1Service_1_1BudgetYearServiceImpl.html#a2b667dc52e17f0de37f021518f5904ad" target="_top" xlink:title=" ">
<polygon fill="none" stroke="black" points="257,-0.5 257,-41.5 495,-41.5 495,-0.5 257,-0.5"/>
<text text-anchor="start" x="265" y="-29.5" font-family="Helvetica,sans-Serif" font-size="10.00">com.eneskaydi.yazilimprojeyonetimi.</text>
<text text-anchor="start" x="265" y="-18.5" font-family="Helvetica,sans-Serif" font-size="10.00">Service.BudgetYearServiceImpl.mapToBudget</text>
<text text-anchor="middle" x="376" y="-7.5" font-family="Helvetica,sans-Serif" font-size="10.00">YearDto</text>
</a>
</g>
</g>
<!-- Node1&#45;&gt;Node5 -->
<g id="edge4" class="edge">
<title>Node1&#45;&gt;Node5</title>
<path fill="none" stroke="midnightblue" d="M221.34,-38.49C229.76,-37.54 238.31,-36.56 246.84,-35.59"/>
<polygon fill="midnightblue" stroke="midnightblue" points="247.29,-39.06 256.83,-34.45 246.5,-32.11 247.29,-39.06"/>
</g>
<!-- Node3 -->
<g id="node3" class="node">
<title>Node3</title>
<g id="a_node3"><a xlink:href="interfacecom_1_1eneskaydi_1_1yazilimprojeyonetimi_1_1Repository_1_1PropertyRepository.html#a34ff11d0d1d56ca858a934c5d196ed20" target="_top" xlink:title=" ">
<polygon fill="none" stroke="black" points="553.5,-87.5 553.5,-128.5 753.5,-128.5 753.5,-87.5 553.5,-87.5"/>
<text text-anchor="start" x="561.5" y="-116.5" font-family="Helvetica,sans-Serif" font-size="10.00">com.eneskaydi.yazilimprojeyonetimi.</text>
<text text-anchor="start" x="561.5" y="-105.5" font-family="Helvetica,sans-Serif" font-size="10.00">Repository.PropertyRepository.findBy</text>
<text text-anchor="middle" x="653.5" y="-94.5" font-family="Helvetica,sans-Serif" font-size="10.00">IdAndUser</text>
</a>
</g>
</g>
<!-- Node2&#45;&gt;Node3 -->
<g id="edge2" class="edge">
<title>Node2&#45;&gt;Node3</title>
<path fill="none" stroke="midnightblue" d="M490.25,-92.1C507.74,-93.81 525.78,-95.58 543.18,-97.29"/>
<polygon fill="midnightblue" stroke="midnightblue" points="543.06,-100.79 553.35,-98.28 543.74,-93.82 543.06,-100.79"/>
</g>
<!-- Node4 -->
<g id="node4" class="node">
<title>Node4</title>
<g id="a_node4"><a xlink:href="classcom_1_1eneskaydi_1_1yazilimprojeyonetimi_1_1Service_1_1BudgetYearServiceImpl.html#a57b6658e9aaecd6761d76df54693d365" target="_top" xlink:title=" ">
<polygon fill="none" stroke="black" points="531,-38 531,-68 776,-68 776,-38 531,-38"/>
<text text-anchor="start" x="539" y="-56" font-family="Helvetica,sans-Serif" font-size="10.00">com.eneskaydi.yazilimprojeyonetimi.</text>
<text text-anchor="middle" x="653.5" y="-45" font-family="Helvetica,sans-Serif" font-size="10.00">Service.BudgetYearServiceImpl.getCurrentUser</text>
</a>
</g>
</g>
<!-- Node2&#45;&gt;Node4 -->
<g id="edge3" class="edge">
<title>Node2&#45;&gt;Node4</title>
<path fill="none" stroke="midnightblue" d="M490.25,-69.49C500.27,-68.47 510.46,-67.44 520.62,-66.4"/>
<polygon fill="midnightblue" stroke="midnightblue" points="521.15,-69.87 530.75,-65.37 520.45,-62.9 521.15,-69.87"/>
</g>
</g>
</svg>
