<?xml version="1.0" encoding="UTF-8" standalone="no"?>
<!DOCTYPE svg PUBLIC "-//W3C//DTD SVG 1.1//EN"
 "http://www.w3.org/Graphics/SVG/1.1/DTD/svg11.dtd">
<!-- Generated by graphviz version 2.43.0 (0)
 -->
<!-- Title: com.eneskaydi.yazilimprojeyonetimi.Controller.AddedUserController Pages: 1 -->
<svg width="352pt" height="525pt"
 viewBox="0.00 0.00 352.00 525.00" xmlns="http://www.w3.org/2000/svg" xmlns:xlink="http://www.w3.org/1999/xlink">
<g id="graph0" class="graph" transform="scale(1 1) rotate(0) translate(4 521)">
<title>com.eneskaydi.yazilimprojeyonetimi.Controller.AddedUserController</title>
<!-- Node1 -->
<g id="node1" class="node">
<title>Node1</title>
<g id="a_node1"><a xlink:title=" ">
<polygon fill="#bfbfbf" stroke="black" points="84,-0.5 84,-112.5 284,-112.5 284,-0.5 84,-0.5"/>
<text text-anchor="start" x="92" y="-100.5" font-family="Helvetica,sans-Serif" font-size="10.00">com.eneskaydi.yazilimprojeyonetimi.</text>
<text text-anchor="middle" x="184" y="-89.5" font-family="Helvetica,sans-Serif" font-size="10.00">Controller.AddedUserController</text>
<polyline fill="none" stroke="black" points="84,-82.5 284,-82.5 "/>
<text text-anchor="middle" x="184" y="-70.5" font-family="Helvetica,sans-Serif" font-size="10.00"> </text>
<polyline fill="none" stroke="black" points="84,-63.5 284,-63.5 "/>
<text text-anchor="start" x="92" y="-51.5" font-family="Helvetica,sans-Serif" font-size="10.00">+ createUser()</text>
<text text-anchor="start" x="92" y="-40.5" font-family="Helvetica,sans-Serif" font-size="10.00">+ getAllUsers()</text>
<text text-anchor="start" x="92" y="-29.5" font-family="Helvetica,sans-Serif" font-size="10.00">+ getUserById()</text>
<text text-anchor="start" x="92" y="-18.5" font-family="Helvetica,sans-Serif" font-size="10.00">+ updateUser()</text>
<text text-anchor="start" x="92" y="-7.5" font-family="Helvetica,sans-Serif" font-size="10.00">+ deleteUser()</text>
</a>
</g>
</g>
<!-- Node2 -->
<g id="node2" class="node">
<title>Node2</title>
<g id="a_node2"><a xlink:href="classcom_1_1eneskaydi_1_1yazilimprojeyonetimi_1_1Service_1_1AddedUserService.html" target="_top" xlink:title=" ">
<polygon fill="none" stroke="black" points="84,-160.5 84,-294.5 284,-294.5 284,-160.5 84,-160.5"/>
<text text-anchor="start" x="92" y="-282.5" font-family="Helvetica,sans-Serif" font-size="10.00">com.eneskaydi.yazilimprojeyonetimi.</text>
<text text-anchor="middle" x="184" y="-271.5" font-family="Helvetica,sans-Serif" font-size="10.00">Service.AddedUserService</text>
<polyline fill="none" stroke="black" points="84,-264.5 284,-264.5 "/>
<text text-anchor="middle" x="184" y="-252.5" font-family="Helvetica,sans-Serif" font-size="10.00"> </text>
<polyline fill="none" stroke="black" points="84,-245.5 284,-245.5 "/>
<text text-anchor="start" x="92" y="-233.5" font-family="Helvetica,sans-Serif" font-size="10.00">+ AddedUserService()</text>
<text text-anchor="start" x="92" y="-222.5" font-family="Helvetica,sans-Serif" font-size="10.00">+ createUser()</text>
<text text-anchor="start" x="92" y="-211.5" font-family="Helvetica,sans-Serif" font-size="10.00">+ getAllUsers()</text>
<text text-anchor="start" x="92" y="-200.5" font-family="Helvetica,sans-Serif" font-size="10.00">+ getUserById()</text>
<text text-anchor="start" x="92" y="-189.5" font-family="Helvetica,sans-Serif" font-size="10.00">+ updateUser()</text>
<text text-anchor="start" x="92" y="-178.5" font-family="Helvetica,sans-Serif" font-size="10.00">+ deleteUser()</text>
<text text-anchor="start" x="92" y="-167.5" font-family="Helvetica,sans-Serif" font-size="10.00">&#45; convertToDTO()</text>
</a>
</g>
</g>
<!-- Node2&#45;&gt;Node1 -->
<g id="edge1" class="edge">
<title>Node2&#45;&gt;Node1</title>
<path fill="none" stroke="#404040" d="M184,-160.19C184,-148.65 184,-136.63 184,-125.05"/>
<polygon fill="none" stroke="#404040" points="184,-124.7 180,-118.7 184,-112.7 188,-118.7 184,-124.7"/>
<text text-anchor="middle" x="232" y="-134" font-family="Helvetica,sans-Serif" font-size="10.00"> &#45;addedUserService</text>
</g>
<!-- Node3 -->
<g id="node3" class="node">
<title>Node3</title>
<g id="a_node3"><a xlink:href="interfacecom_1_1eneskaydi_1_1yazilimprojeyonetimi_1_1Repository_1_1AddedUserRepository.html" target="_top" xlink:title=" ">
<polygon fill="none" stroke="black" points="0,-342.5 0,-410.5 200,-410.5 200,-342.5 0,-342.5"/>
<text text-anchor="start" x="8" y="-398.5" font-family="Helvetica,sans-Serif" font-size="10.00">com.eneskaydi.yazilimprojeyonetimi.</text>
<text text-anchor="middle" x="100" y="-387.5" font-family="Helvetica,sans-Serif" font-size="10.00">Repository.AddedUserRepository</text>
<polyline fill="none" stroke="black" points="0,-380.5 200,-380.5 "/>
<text text-anchor="middle" x="100" y="-368.5" font-family="Helvetica,sans-Serif" font-size="10.00"> </text>
<polyline fill="none" stroke="black" points="0,-361.5 200,-361.5 "/>
<text text-anchor="start" x="8" y="-349.5" font-family="Helvetica,sans-Serif" font-size="10.00">+ findByEmail()</text>
</a>
</g>
</g>
<!-- Node3&#45;&gt;Node2 -->
<g id="edge2" class="edge">
<title>Node3&#45;&gt;Node2</title>
<path fill="none" stroke="#404040" d="M118.44,-342.36C123.75,-332.86 129.58,-322.51 135,-313 136.42,-310.51 137.86,-307.99 139.32,-305.44"/>
<polygon fill="none" stroke="#404040" points="139.41,-305.28 138.93,-298.08 145.39,-294.87 145.87,-302.06 139.41,-305.28"/>
<text text-anchor="middle" x="191" y="-316" font-family="Helvetica,sans-Serif" font-size="10.00"> &#45;addedUserRepository</text>
</g>
<!-- Node4 -->
<g id="node4" class="node">
<title>Node4</title>
<g id="a_node4"><a xlink:title=" ">
<polygon fill="none" stroke="#bfbfbf" points="24,-448.5 24,-516.5 176,-516.5 176,-448.5 24,-448.5"/>
<text text-anchor="start" x="32" y="-504.5" font-family="Helvetica,sans-Serif" font-size="10.00">JpaRepository&lt; AddedUser,</text>
<text text-anchor="middle" x="100" y="-493.5" font-family="Helvetica,sans-Serif" font-size="10.00"> Long &gt;</text>
<polyline fill="none" stroke="#bfbfbf" points="24,-486.5 176,-486.5 "/>
<text text-anchor="middle" x="100" y="-474.5" font-family="Helvetica,sans-Serif" font-size="10.00"> </text>
<polyline fill="none" stroke="#bfbfbf" points="24,-467.5 176,-467.5 "/>
<text text-anchor="middle" x="100" y="-455.5" font-family="Helvetica,sans-Serif" font-size="10.00"> </text>
</a>
</g>
</g>
<!-- Node4&#45;&gt;Node3 -->
<g id="edge3" class="edge">
<title>Node4&#45;&gt;Node3</title>
<path fill="none" stroke="midnightblue" d="M100,-438.17C100,-429 100,-419.46 100,-410.73"/>
<polygon fill="none" stroke="midnightblue" points="96.5,-438.31 100,-448.31 103.5,-438.31 96.5,-438.31"/>
</g>
<!-- Node5 -->
<g id="node5" class="node">
<title>Node5</title>
<g id="a_node5"><a xlink:title=" ">
<polygon fill="none" stroke="#bfbfbf" points="218.5,-348 218.5,-405 319.5,-405 319.5,-348 218.5,-348"/>
<text text-anchor="middle" x="269" y="-393" font-family="Helvetica,sans-Serif" font-size="10.00">PasswordEncoder</text>
<polyline fill="none" stroke="#bfbfbf" points="218.5,-386 319.5,-386 "/>
<text text-anchor="middle" x="269" y="-374" font-family="Helvetica,sans-Serif" font-size="10.00"> </text>
<polyline fill="none" stroke="#bfbfbf" points="218.5,-367 319.5,-367 "/>
<text text-anchor="middle" x="269" y="-355" font-family="Helvetica,sans-Serif" font-size="10.00"> </text>
</a>
</g>
</g>
<!-- Node5&#45;&gt;Node2 -->
<g id="edge4" class="edge">
<title>Node5&#45;&gt;Node2</title>
<path fill="none" stroke="#404040" d="M261.3,-347.98C257.67,-336.8 252.84,-323.96 247,-313 245.57,-310.32 244.06,-307.62 242.49,-304.93"/>
<polygon fill="none" stroke="#404040" points="242.42,-304.84 235.87,-301.82 236.13,-294.62 242.69,-297.63 242.42,-304.84"/>
<text text-anchor="middle" x="297.5" y="-316" font-family="Helvetica,sans-Serif" font-size="10.00"> &#45;passwordEncoder</text>
</g>
</g>
</svg>
