<?xml version="1.0" encoding="UTF-8" standalone="no"?>
<!DOCTYPE svg PUBLIC "-//W3C//DTD SVG 1.1//EN"
 "http://www.w3.org/Graphics/SVG/1.1/DTD/svg11.dtd">
<!-- Generated by graphviz version 2.43.0 (0)
 -->
<!-- Title: com.eneskaydi.yazilimprojeyonetimi.Service.MonthlyBudgetServiceImpl.getBudgetYearIfValid Pages: 1 -->
<svg width="456pt" height="110pt"
 viewBox="0.00 0.00 456.00 110.00" xmlns="http://www.w3.org/2000/svg" xmlns:xlink="http://www.w3.org/1999/xlink">
<g id="graph0" class="graph" transform="scale(1 1) rotate(0) translate(4 106)">
<title>com.eneskaydi.yazilimprojeyonetimi.Service.MonthlyBudgetServiceImpl.getBudgetYearIfValid</title>
<!-- Node1 -->
<g id="node1" class="node">
<title>Node1</title>
<g id="a_node1"><a xlink:title=" ">
<polygon fill="#bfbfbf" stroke="black" points="0,-30.5 0,-71.5 206,-71.5 206,-30.5 0,-30.5"/>
<text text-anchor="start" x="8" y="-59.5" font-family="Helvetica,sans-Serif" font-size="10.00">com.eneskaydi.yazilimprojeyonetimi.</text>
<text text-anchor="start" x="8" y="-48.5" font-family="Helvetica,sans-Serif" font-size="10.00">Service.MonthlyBudgetServiceImpl.get</text>
<text text-anchor="middle" x="103" y="-37.5" font-family="Helvetica,sans-Serif" font-size="10.00">BudgetYearIfValid</text>
</a>
</g>
</g>
<!-- Node2 -->
<g id="node2" class="node">
<title>Node2</title>
<g id="a_node2"><a xlink:href="interfacecom_1_1eneskaydi_1_1yazilimprojeyonetimi_1_1Repository_1_1PropertyRepository.html#a34ff11d0d1d56ca858a934c5d196ed20" target="_top" xlink:title=" ">
<polygon fill="none" stroke="black" points="245,-60.5 245,-101.5 445,-101.5 445,-60.5 245,-60.5"/>
<text text-anchor="start" x="253" y="-89.5" font-family="Helvetica,sans-Serif" font-size="10.00">com.eneskaydi.yazilimprojeyonetimi.</text>
<text text-anchor="start" x="253" y="-78.5" font-family="Helvetica,sans-Serif" font-size="10.00">Repository.PropertyRepository.findBy</text>
<text text-anchor="middle" x="345" y="-67.5" font-family="Helvetica,sans-Serif" font-size="10.00">IdAndUser</text>
</a>
</g>
</g>
<!-- Node1&#45;&gt;Node2 -->
<g id="edge1" class="edge">
<title>Node1&#45;&gt;Node2</title>
<path fill="none" stroke="midnightblue" d="M206.13,-63.77C215.5,-64.94 225.02,-66.13 234.45,-67.31"/>
<polygon fill="midnightblue" stroke="midnightblue" points="234.28,-70.81 244.64,-68.58 235.15,-63.87 234.28,-70.81"/>
</g>
<!-- Node3 -->
<g id="node3" class="node">
<title>Node3</title>
<g id="a_node3"><a xlink:href="classcom_1_1eneskaydi_1_1yazilimprojeyonetimi_1_1Service_1_1MonthlyBudgetServiceImpl.html#afbca518f263173de8204ce13636c81ae" target="_top" xlink:title=" ">
<polygon fill="none" stroke="black" points="242,-0.5 242,-41.5 448,-41.5 448,-0.5 242,-0.5"/>
<text text-anchor="start" x="250" y="-29.5" font-family="Helvetica,sans-Serif" font-size="10.00">com.eneskaydi.yazilimprojeyonetimi.</text>
<text text-anchor="start" x="250" y="-18.5" font-family="Helvetica,sans-Serif" font-size="10.00">Service.MonthlyBudgetServiceImpl.get</text>
<text text-anchor="middle" x="345" y="-7.5" font-family="Helvetica,sans-Serif" font-size="10.00">CurrentUser</text>
</a>
</g>
</g>
<!-- Node1&#45;&gt;Node3 -->
<g id="edge2" class="edge">
<title>Node1&#45;&gt;Node3</title>
<path fill="none" stroke="midnightblue" d="M206.13,-38.23C214.66,-37.17 223.31,-36.09 231.91,-35.01"/>
<polygon fill="midnightblue" stroke="midnightblue" points="232.47,-38.47 241.96,-33.75 231.61,-31.52 232.47,-38.47"/>
</g>
</g>
</svg>
