<?xml version="1.0" encoding="UTF-8" standalone="no"?>
<!DOCTYPE svg PUBLIC "-//W3C//DTD SVG 1.1//EN"
 "http://www.w3.org/Graphics/SVG/1.1/DTD/svg11.dtd">
<!-- Generated by graphviz version 2.43.0 (0)
 -->
<!-- Title: com.eneskaydi.yazilimprojeyonetimi.Dto.IncomeRecordUpdateDto Pages: 1 -->
<svg width="437pt" height="237pt"
 viewBox="0.00 0.00 437.00 237.00" xmlns="http://www.w3.org/2000/svg" xmlns:xlink="http://www.w3.org/1999/xlink">
<g id="graph0" class="graph" transform="scale(1 1) rotate(0) translate(4 233)">
<title>com.eneskaydi.yazilimprojeyonetimi.Dto.IncomeRecordUpdateDto</title>
<!-- Node1 -->
<g id="node1" class="node">
<title>Node1</title>
<g id="a_node1"><a xlink:title=" ">
<polygon fill="#bfbfbf" stroke="black" points="155,-0.5 155,-68.5 355,-68.5 355,-0.5 155,-0.5"/>
<text text-anchor="start" x="163" y="-56.5" font-family="Helvetica,sans-Serif" font-size="10.00">com.eneskaydi.yazilimprojeyonetimi.</text>
<text text-anchor="middle" x="255" y="-45.5" font-family="Helvetica,sans-Serif" font-size="10.00">Dto.IncomeRecordUpdateDto</text>
<polyline fill="none" stroke="black" points="155,-38.5 355,-38.5 "/>
<text text-anchor="start" x="163" y="-26.5" font-family="Helvetica,sans-Serif" font-size="10.00">&#45; notes</text>
<polyline fill="none" stroke="black" points="155,-19.5 355,-19.5 "/>
<text text-anchor="middle" x="255" y="-7.5" font-family="Helvetica,sans-Serif" font-size="10.00"> </text>
</a>
</g>
</g>
<!-- Node2 -->
<g id="node2" class="node">
<title>Node2</title>
<g id="a_node2"><a xlink:href="enumcom_1_1eneskaydi_1_1yazilimprojeyonetimi_1_1Entity_1_1IncomeStatusType.html" target="_top" xlink:title=" ">
<polygon fill="none" stroke="black" points="0,-127.5 0,-228.5 200,-228.5 200,-127.5 0,-127.5"/>
<text text-anchor="start" x="8" y="-216.5" font-family="Helvetica,sans-Serif" font-size="10.00">com.eneskaydi.yazilimprojeyonetimi.</text>
<text text-anchor="middle" x="100" y="-205.5" font-family="Helvetica,sans-Serif" font-size="10.00">Entity.IncomeStatusType</text>
<polyline fill="none" stroke="black" points="0,-198.5 200,-198.5 "/>
<text text-anchor="start" x="8" y="-186.5" font-family="Helvetica,sans-Serif" font-size="10.00">+ HENUZ_GELMEDI</text>
<text text-anchor="start" x="8" y="-175.5" font-family="Helvetica,sans-Serif" font-size="10.00">+ ODENDI</text>
<text text-anchor="start" x="8" y="-164.5" font-family="Helvetica,sans-Serif" font-size="10.00">+ ODENMEDI</text>
<text text-anchor="start" x="8" y="-153.5" font-family="Helvetica,sans-Serif" font-size="10.00">+ KISMEN_ODENMIS</text>
<polyline fill="none" stroke="black" points="0,-146.5 200,-146.5 "/>
<text text-anchor="middle" x="100" y="-134.5" font-family="Helvetica,sans-Serif" font-size="10.00"> </text>
</a>
</g>
</g>
<!-- Node2&#45;&gt;Node1 -->
<g id="edge1" class="edge">
<title>Node2&#45;&gt;Node1</title>
<path fill="none" stroke="#404040" d="M154.65,-127.11C172.59,-110.73 192.33,-92.71 209.52,-77.02"/>
<polygon fill="none" stroke="#404040" points="209.92,-76.66 211.65,-69.66 218.78,-68.57 217.04,-75.57 209.92,-76.66"/>
<text text-anchor="middle" x="213.5" y="-95.5" font-family="Helvetica,sans-Serif" font-size="10.00"> &#45;status</text>
</g>
<!-- Node3 -->
<g id="node3" class="node">
<title>Node3</title>
<g id="a_node3"><a xlink:title=" ">
<polygon fill="none" stroke="#bfbfbf" points="218.5,-149.5 218.5,-206.5 291.5,-206.5 291.5,-149.5 218.5,-149.5"/>
<text text-anchor="middle" x="255" y="-194.5" font-family="Helvetica,sans-Serif" font-size="10.00">BigDecimal</text>
<polyline fill="none" stroke="#bfbfbf" points="218.5,-187.5 291.5,-187.5 "/>
<text text-anchor="middle" x="255" y="-175.5" font-family="Helvetica,sans-Serif" font-size="10.00"> </text>
<polyline fill="none" stroke="#bfbfbf" points="218.5,-168.5 291.5,-168.5 "/>
<text text-anchor="middle" x="255" y="-156.5" font-family="Helvetica,sans-Serif" font-size="10.00"> </text>
</a>
</g>
</g>
<!-- Node3&#45;&gt;Node1 -->
<g id="edge2" class="edge">
<title>Node3&#45;&gt;Node1</title>
<path fill="none" stroke="#404040" d="M255,-149.38C255,-129.84 255,-103.19 255,-80.59"/>
<polygon fill="none" stroke="#404040" points="255,-80.52 251,-74.52 255,-68.52 259,-74.52 255,-80.52"/>
<text text-anchor="middle" x="300.5" y="-101" font-family="Helvetica,sans-Serif" font-size="10.00"> &#45;expectedAmount</text>
<text text-anchor="middle" x="300.5" y="-90" font-family="Helvetica,sans-Serif" font-size="10.00">&#45;paidAmount</text>
</g>
<!-- Node4 -->
<g id="node4" class="node">
<title>Node4</title>
<g id="a_node4"><a xlink:title=" ">
<polygon fill="none" stroke="#bfbfbf" points="336.5,-149.5 336.5,-206.5 401.5,-206.5 401.5,-149.5 336.5,-149.5"/>
<text text-anchor="middle" x="369" y="-194.5" font-family="Helvetica,sans-Serif" font-size="10.00">LocalDate</text>
<polyline fill="none" stroke="#bfbfbf" points="336.5,-187.5 401.5,-187.5 "/>
<text text-anchor="middle" x="369" y="-175.5" font-family="Helvetica,sans-Serif" font-size="10.00"> </text>
<polyline fill="none" stroke="#bfbfbf" points="336.5,-168.5 401.5,-168.5 "/>
<text text-anchor="middle" x="369" y="-156.5" font-family="Helvetica,sans-Serif" font-size="10.00"> </text>
</a>
</g>
</g>
<!-- Node4&#45;&gt;Node1 -->
<g id="edge3" class="edge">
<title>Node4&#45;&gt;Node1</title>
<path fill="none" stroke="#404040" d="M367.94,-149.35C365.93,-130.16 360.63,-104.93 347,-87 344.23,-83.36 341.13,-79.94 337.79,-76.74"/>
<polygon fill="none" stroke="#404040" points="337.55,-76.53 330.39,-75.68 328.42,-68.74 335.58,-69.59 337.55,-76.53"/>
<text text-anchor="middle" x="393.5" y="-101" font-family="Helvetica,sans-Serif" font-size="10.00"> &#45;dueDate</text>
<text text-anchor="middle" x="393.5" y="-90" font-family="Helvetica,sans-Serif" font-size="10.00">&#45;paymentDate</text>
</g>
</g>
</svg>
