<?xml version="1.0" encoding="UTF-8" standalone="no"?>
<!DOCTYPE svg PUBLIC "-//W3C//DTD SVG 1.1//EN"
 "http://www.w3.org/Graphics/SVG/1.1/DTD/svg11.dtd">
<!-- Generated by graphviz version 2.43.0 (0)
 -->
<!-- Title: com.eneskaydi.yazilimprojeyonetimi.Repository.PropertyRepository Pages: 1 -->
<svg width="208pt" height="215pt"
 viewBox="0.00 0.00 208.00 215.00" xmlns="http://www.w3.org/2000/svg" xmlns:xlink="http://www.w3.org/1999/xlink">
<g id="graph0" class="graph" transform="scale(1 1) rotate(0) translate(4 211)">
<title>com.eneskaydi.yazilimprojeyonetimi.Repository.PropertyRepository</title>
<!-- Node1 -->
<g id="node1" class="node">
<title>Node1</title>
<g id="a_node1"><a xlink:title=" ">
<polygon fill="#bfbfbf" stroke="black" points="0,-0.5 0,-101.5 200,-101.5 200,-0.5 0,-0.5"/>
<text text-anchor="start" x="8" y="-89.5" font-family="Helvetica,sans-Serif" font-size="10.00">com.eneskaydi.yazilimprojeyonetimi.</text>
<text text-anchor="middle" x="100" y="-78.5" font-family="Helvetica,sans-Serif" font-size="10.00">Repository.PropertyRepository</text>
<polyline fill="none" stroke="black" points="0,-71.5 200,-71.5 "/>
<text text-anchor="middle" x="100" y="-59.5" font-family="Helvetica,sans-Serif" font-size="10.00"> </text>
<polyline fill="none" stroke="black" points="0,-52.5 200,-52.5 "/>
<text text-anchor="start" x="8" y="-40.5" font-family="Helvetica,sans-Serif" font-size="10.00">+ findByUser()</text>
<text text-anchor="start" x="8" y="-29.5" font-family="Helvetica,sans-Serif" font-size="10.00">+ findByIdAndUser()</text>
<text text-anchor="start" x="8" y="-18.5" font-family="Helvetica,sans-Serif" font-size="10.00">+ findByNameAndUser()</text>
<text text-anchor="start" x="8" y="-7.5" font-family="Helvetica,sans-Serif" font-size="10.00">+ findByNameAndUserAndIdNot()</text>
</a>
</g>
</g>
<!-- Node2 -->
<g id="node2" class="node">
<title>Node2</title>
<g id="a_node2"><a xlink:title=" ">
<polygon fill="none" stroke="#bfbfbf" points="30,-138.5 30,-206.5 170,-206.5 170,-138.5 30,-138.5"/>
<text text-anchor="start" x="38" y="-194.5" font-family="Helvetica,sans-Serif" font-size="10.00">JpaRepository&lt; Property,</text>
<text text-anchor="middle" x="100" y="-183.5" font-family="Helvetica,sans-Serif" font-size="10.00"> Long &gt;</text>
<polyline fill="none" stroke="#bfbfbf" points="30,-176.5 170,-176.5 "/>
<text text-anchor="middle" x="100" y="-164.5" font-family="Helvetica,sans-Serif" font-size="10.00"> </text>
<polyline fill="none" stroke="#bfbfbf" points="30,-157.5 170,-157.5 "/>
<text text-anchor="middle" x="100" y="-145.5" font-family="Helvetica,sans-Serif" font-size="10.00"> </text>
</a>
</g>
</g>
<!-- Node2&#45;&gt;Node1 -->
<g id="edge1" class="edge">
<title>Node2&#45;&gt;Node1</title>
<path fill="none" stroke="midnightblue" d="M100,-128.05C100,-119.47 100,-110.41 100,-101.65"/>
<polygon fill="none" stroke="midnightblue" points="96.5,-128.21 100,-138.21 103.5,-128.21 96.5,-128.21"/>
</g>
</g>
</svg>
