<?xml version="1.0" encoding="UTF-8" standalone="no"?>
<!DOCTYPE svg PUBLIC "-//W3C//DTD SVG 1.1//EN"
 "http://www.w3.org/Graphics/SVG/1.1/DTD/svg11.dtd">
<!-- Generated by graphviz version 2.43.0 (0)
 -->
<!-- Title: com.eneskaydi.yazilimprojeyonetimi.Service.UserService Pages: 1 -->
<svg width="208pt" height="248pt"
 viewBox="0.00 0.00 208.00 248.00" xmlns="http://www.w3.org/2000/svg" xmlns:xlink="http://www.w3.org/1999/xlink">
<g id="graph0" class="graph" transform="scale(1 1) rotate(0) translate(4 244)">
<title>com.eneskaydi.yazilimprojeyonetimi.Service.UserService</title>
<!-- Node1 -->
<g id="node1" class="node">
<title>Node1</title>
<g id="a_node1"><a xlink:title=" ">
<polygon fill="#bfbfbf" stroke="black" points="0,-149.5 0,-239.5 200,-239.5 200,-149.5 0,-149.5"/>
<text text-anchor="start" x="8" y="-227.5" font-family="Helvetica,sans-Serif" font-size="10.00">com.eneskaydi.yazilimprojeyonetimi.</text>
<text text-anchor="middle" x="100" y="-216.5" font-family="Helvetica,sans-Serif" font-size="10.00">Service.UserService</text>
<polyline fill="none" stroke="black" points="0,-209.5 200,-209.5 "/>
<text text-anchor="middle" x="100" y="-197.5" font-family="Helvetica,sans-Serif" font-size="10.00"> </text>
<polyline fill="none" stroke="black" points="0,-190.5 200,-190.5 "/>
<text text-anchor="start" x="8" y="-178.5" font-family="Helvetica,sans-Serif" font-size="10.00">+ getCurrentUserProfile()</text>
<text text-anchor="start" x="8" y="-167.5" font-family="Helvetica,sans-Serif" font-size="10.00">+ updateCurrentUserProfile()</text>
<text text-anchor="start" x="8" y="-156.5" font-family="Helvetica,sans-Serif" font-size="10.00">+ changePassword()</text>
</a>
</g>
</g>
<!-- Node2 -->
<g id="node2" class="node">
<title>Node2</title>
<g id="a_node2"><a xlink:href="classcom_1_1eneskaydi_1_1yazilimprojeyonetimi_1_1Service_1_1UserServiceImpl.html" target="_top" xlink:title=" ">
<polygon fill="none" stroke="black" points="0,-0.5 0,-112.5 200,-112.5 200,-0.5 0,-0.5"/>
<text text-anchor="start" x="8" y="-100.5" font-family="Helvetica,sans-Serif" font-size="10.00">com.eneskaydi.yazilimprojeyonetimi.</text>
<text text-anchor="middle" x="100" y="-89.5" font-family="Helvetica,sans-Serif" font-size="10.00">Service.UserServiceImpl</text>
<polyline fill="none" stroke="black" points="0,-82.5 200,-82.5 "/>
<text text-anchor="start" x="8" y="-70.5" font-family="Helvetica,sans-Serif" font-size="10.00">&#45; userRepository</text>
<polyline fill="none" stroke="black" points="0,-63.5 200,-63.5 "/>
<text text-anchor="start" x="8" y="-51.5" font-family="Helvetica,sans-Serif" font-size="10.00">+ getCurrentUserProfile()</text>
<text text-anchor="start" x="8" y="-40.5" font-family="Helvetica,sans-Serif" font-size="10.00">+ updateCurrentUserProfile()</text>
<text text-anchor="start" x="8" y="-29.5" font-family="Helvetica,sans-Serif" font-size="10.00">+ changePassword()</text>
<text text-anchor="start" x="8" y="-18.5" font-family="Helvetica,sans-Serif" font-size="10.00">&#45; getAuthenticatedUser()</text>
<text text-anchor="start" x="8" y="-7.5" font-family="Helvetica,sans-Serif" font-size="10.00">&#45; mapToUserDto()</text>
</a>
</g>
</g>
<!-- Node1&#45;&gt;Node2 -->
<g id="edge1" class="edge">
<title>Node1&#45;&gt;Node2</title>
<path fill="none" stroke="midnightblue" d="M100,-139.31C100,-130.61 100,-121.59 100,-112.87"/>
<polygon fill="none" stroke="midnightblue" points="96.5,-139.34 100,-149.34 103.5,-139.34 96.5,-139.34"/>
</g>
</g>
</svg>
